<svg fill="none" height="48" viewBox="0 0 48 48" width="48" xmlns="http://www.w3.org/2000/svg"><path d="m26.1416 4.06042s2.3123.88958 6.5623 5.16458c4.2344 4.2593 5.1224 6.5893 5.1289 6.6063.1032 2.0296.1672 4.4032.1672 7.1687 0 8.2512-.57 13.014-1.0499 15.5616-.3082 1.6367-1.5779 2.7585-3.2243 2.9372-2.2226.2412-6.1445.5012-12.7258.5012s-10.5032-.26-12.72575-.5012c-1.64649-.1787-2.91611-1.3005-3.22439-2.9372-.47988-2.5476-1.04986-7.3104-1.04986-15.5616s.56998-13.01396 1.04986-15.56163c.30828-1.63667 1.57789-2.75846 3.22438-2.93717 2.22256-.24123 6.14446-.5012 12.72576-.5012 1.9358 0 3.6416.02253 5.1416.06042z" fill="#a6cfff"/><path d="m37.8332 15.8315c-2.7196.688-5.9305.7337-8.7039-.1185-1.1725-.3603-2.0867-1.2791-2.4824-2.4463-.9859-2.9076-1.2294-6.46668-.5049-9.20615 0 0 2.3123.88958 6.5623 5.16458 4.25 4.27497 5.1289 6.60637 5.1289 6.60637z" fill="#1575e5"/><path clip-rule="evenodd" d="m35 21c-3.5866 0-6.5431 2.8124-6.7222 6.3945l-.0925 1.8493c-1.7377.1638-2.9452 1.4131-3.0598 3.1574-.0716 1.0892-.1255 2.5798-.1255 4.5988 0 2.1788.0733 3.7422.1666 4.8499.1353 1.6066 1.2652 2.7343 2.87 2.8896 1.4388.1391 3.6448.2605 6.9634.2605s5.5246-.1214 6.9634-.2605c1.6048-.1553 2.7347-1.283 2.87-2.8896.0933-1.1077.1666-2.6711.1666-4.8499s-.0733-3.7422-.1666-4.8499c-.1353-1.6066-1.2652-2.7343-2.87-2.8896-.0487-.0047-.0982-.0094-.1486-.014l-.0926-1.852c-.1791-3.5821-3.1356-6.3945-6.7222-6.3945zm2.7991 8.0325-.0719-1.4382c-.0726-1.4533-1.2721-2.5943-2.7272-2.5943s-2.6546 1.141-2.7272 2.5943l-.0719 1.4381c.8326-.0206 1.7623-.0324 2.7991-.0324 1.0385 0 1.968.0119 2.7991.0325z" fill="#1575e5" fill-rule="evenodd"/><path d="m35.806 37.831c.7031-.31 1.194-1.0132 1.194-1.831 0-1.1046-.8954-2-2-2s-2 .8954-2 2c0 .8178.4909 1.521 1.194 1.831l-.1408 1.252c-.0348.3093.0158.6475.2953.7846.1513.0743.3622.1324.6515.1324s.5002-.0581.6515-.1324c.2795-.1371.3301-.4753.2953-.7846z" fill="#a6cfff"/></svg>